<svg width="750" height="750" viewBox="0 0 750 750" fill="none" xmlns="http://www.w3.org/2000/svg">
<circle cx="375" cy="375" r="375" fill="#660166"/>
<path d="M266.443 223.751C302.557 223.751 320.614 245.141 320.614 287.921C320.614 330.701 302.224 352.091 265.443 352.091C228.662 352.091 210.272 330.216 210.272 286.467C210.272 244.656 228.995 223.751 266.443 223.751ZM265.443 233.658C258.656 233.658 254.051 237.415 251.627 244.929C249.264 252.382 248.083 266.713 248.083 287.921C248.083 309.129 249.264 323.49 251.627 331.004C254.051 338.457 258.656 342.183 265.443 342.183C272.23 342.183 276.805 338.457 279.168 331.004C281.591 323.49 282.803 309.129 282.803 287.921C282.803 266.773 281.591 252.443 279.168 244.929C276.805 237.415 272.23 233.658 265.443 233.658ZM416.102 350H382.926V282.74C382.926 275.893 381.017 272.469 377.2 272.469C373.322 272.469 369.959 275.196 367.111 280.65C364.263 286.042 362.839 292.435 362.839 299.828V350H329.664V258.199C341.055 258.199 352.114 257.442 362.839 255.927V273.106C371.08 261.714 381.139 256.018 393.015 256.018C408.406 256.018 416.102 263.835 416.102 279.468V350ZM494.774 316.461L508.135 320.369C506.741 341.517 494.259 352.091 470.688 352.091C440.148 352.091 424.878 336.851 424.878 306.372C424.878 291.587 428.938 279.468 437.058 270.015C445.177 260.562 455.569 255.836 468.234 255.836C494.713 255.836 507.953 272.924 507.953 307.099H459.599C459.599 331.095 465.689 343.092 477.868 343.092C489.26 343.092 494.956 336.306 494.956 322.732C494.956 320.915 494.895 318.824 494.774 316.461ZM459.508 296.828H479.322C479.322 275.499 476.111 264.834 469.688 264.834C463.871 264.834 460.599 272.742 459.872 288.557L459.508 296.828Z" fill="white"/>
<path d="M311.253 373.933L280.258 413.107L325.977 498H285.894L256.808 443.647L251.627 449.464V498H215.634V373.933H251.627V429.195L294.347 373.933H311.253ZM327.937 498V373.933C337.753 373.933 348.811 373.296 361.112 372.024V422.105C368.262 410.047 378.351 404.018 391.379 404.018C406.77 404.018 414.466 410.926 414.466 424.741V498H381.29V428.377C381.29 423.105 379.533 420.469 376.018 420.469C372.383 420.469 368.989 423.863 365.838 430.649C362.688 437.375 361.112 444.616 361.112 452.372V498H327.937ZM519.951 494.728C511.831 497.879 503.924 499.454 496.228 499.454C484.836 499.454 477.808 495.909 475.141 488.82C469.627 496.212 461.689 499.909 451.328 499.909C431.998 499.909 422.333 490.941 422.333 473.005C422.333 459.371 431.18 449.797 448.874 444.283C465.113 439.193 473.233 433.073 473.233 425.923C473.233 416.531 468.567 411.835 459.235 411.835C448.449 411.835 443.057 416.379 443.057 425.468C443.057 428.316 443.905 432.073 445.602 436.739L429.15 433.558C428.726 430.71 428.514 428.044 428.514 425.559C428.514 411.017 441.784 403.745 468.324 403.745C493.532 403.745 506.135 410.532 506.135 424.105V479.731C506.135 485.427 507.984 488.275 511.68 488.275C512.831 488.275 514.528 487.638 516.77 486.366L519.951 494.728ZM472.96 442.92C470.9 445.283 468.506 447.252 465.779 448.828C458.932 452.827 455.509 459.553 455.509 469.006C455.509 481.124 457.872 487.184 462.598 487.184C469.506 487.184 472.96 481.185 472.96 469.187V442.92ZM569.992 406.654V416.925H555.268V481.73C555.268 485.79 556.571 487.82 559.176 487.82C561.055 487.82 562.176 486.457 562.539 483.73L571.992 484.639C569.386 494.213 561.085 499 547.088 499C530.424 499 522.092 491.91 522.092 477.731V416.925H511.004V406.654H522.092V390.475C533.545 387.324 544.603 382.779 555.268 376.841V406.654H569.992ZM667.479 494.728C659.36 497.879 651.452 499.454 643.757 499.454C632.365 499.454 625.336 495.909 622.67 488.82C617.156 496.212 609.218 499.909 598.856 499.909C579.526 499.909 569.862 490.941 569.862 473.005C569.862 459.371 578.708 449.797 596.402 444.283C612.641 439.193 620.761 433.073 620.761 425.923C620.761 416.531 616.095 411.835 606.764 411.835C595.978 411.835 590.585 416.379 590.585 425.468C590.585 428.316 591.433 432.073 593.13 436.739L576.678 433.558C576.254 430.71 576.042 428.044 576.042 425.559C576.042 411.017 589.312 403.745 615.853 403.745C641.06 403.745 653.664 410.532 653.664 424.105V479.731C653.664 485.427 655.512 488.275 659.208 488.275C660.359 488.275 662.056 487.638 664.298 486.366L667.479 494.728ZM620.488 442.92C618.428 445.283 616.035 447.252 613.308 448.828C606.461 452.827 603.037 459.553 603.037 469.006C603.037 481.124 605.4 487.184 610.127 487.184C617.034 487.184 620.488 481.185 620.488 469.187V442.92Z" fill="white"/>
<path d="M157.117 293.102C157.117 291.028 157.585 288.98 158.486 287.111L183.068 236.158C183.88 234.474 185.067 232.998 186.536 231.841V231.841C194.596 225.499 206.419 231.241 206.419 241.497V488.822C206.419 496.437 200.246 502.611 192.631 502.611H170.905C163.29 502.611 157.117 496.437 157.117 488.822V293.102Z" fill="white"/>
<path d="M179.618 182.836C181.349 179.796 185.407 181.292 185.407 184.969L185.406 216.305C185.406 217.228 185.115 218.113 184.588 218.789L105.894 319.748C104.847 321.091 102.926 320.27 102.834 318.438V318.438C102.812 317.99 102.914 317.546 103.125 317.175L179.618 182.836Z" fill="#F96C1B"/>
<path d="M103.969 334.871C99.2119 328.95 99.8585 319.397 105.399 313.755L190.425 227.163C192.633 224.915 195.529 223.831 198.36 224.194V224.194C203.165 224.81 206.672 229.397 206.625 235.004L206.394 262.073C206.38 263.751 206.116 265.429 205.615 267.034L202.667 276.485C201.843 279.125 200.403 281.485 198.513 283.296L131.169 347.807C125.834 352.918 118.19 352.569 113.725 347.012L103.969 334.871Z" fill="white"/>
</svg>
